<?xml version="1.0" encoding="iso-8859-1"?>
<!-- Generator: Adobe Illustrator 18.1.1, SVG Export Plug-In . SVG Version: 6.00 Build 0)  -->
<svg version="1.1" id="Capa_1" xmlns="http://www.w3.org/2000/svg" xmlns:xlink="http://www.w3.org/1999/xlink" x="0px" y="0px"
	 viewBox="0 0 36.813 36.813" style="enable-background:new 0 0 36.813 36.813;" xml:space="preserve">
<g>
	<path style="fill:#010002;" d="M22.483,26.981c1.564,0,2.833-1.268,2.833-2.834v-8.858h4.017c0.783,0,1.028-0.502,0.547-1.12
		L19.22,0.463c-0.481-0.618-1.259-0.618-1.735,0.002l-10.554,13.7c-0.479,0.62-0.232,1.124,0.552,1.124h4.368h0.002V26.98
		L22.483,26.981L22.483,26.981z"/>
	<path style="fill:#010002;" d="M32.116,25.261v7.414H4.696v-7.414H2.627c-1.143,0-2.069,0.925-2.069,2.069v8.483
		c0,0.553,0.447,1,1,1h33.697c0.553,0,1-0.447,1-1V27.33c0-1.145-0.927-2.069-2.069-2.069H32.116z"/>
</g>
</svg>
