<?xml version="1.0" encoding="iso-8859-1"?>
<!-- Generator: Adobe Illustrator 18.1.1, SVG Export Plug-In . SVG Version: 6.00 Build 0)  -->
<svg version="1.1" id="Capa_1" xmlns="http://www.w3.org/2000/svg" xmlns:xlink="http://www.w3.org/1999/xlink" x="0px" y="0px"
	 viewBox="0 0 36.808 36.808" style="enable-background:new 0 0 36.808 36.808;" xml:space="preserve">
<g>
	<path style="fill:#010002;" d="M14.328,0c-1.566,0-2.835,1.267-2.835,2.832v8.858H7.478c-0.784,0-1.027,0.501-0.549,1.12
		L17.59,26.516c0.48,0.618,1.259,0.618,1.736-0.003L29.88,12.814c0.477-0.62,0.23-1.124-0.553-1.124h-4.369V0H14.328z"/>
	<path style="fill:#010002;" d="M32.114,25.256v7.414H4.694v-7.414h-2.07c-1.143,0-2.069,0.925-2.069,2.069v8.483
		c0,0.553,0.447,1,1,1h33.698c0.553,0,1-0.447,1-1v-8.483c0-1.144-0.927-2.069-2.069-2.069
		C34.184,25.256,32.114,25.256,32.114,25.256z"/>
</g>
<g>
</g>
<g>
</g>
<g>
</g>
<g>
</g>
<g>
</g>
<g>
</g>
<g>
</g>
<g>
</g>
<g>
</g>
<g>
</g>
<g>
</g>
<g>
</g>
<g>
</g>
<g>
</g>
<g>
</g>
</svg>
