<?xml version="1.0" encoding="iso-8859-1"?>
<!-- Generator: Adobe Illustrator 16.0.0, SVG Export Plug-In . SVG Version: 6.00 Build 0)  -->
<!DOCTYPE svg PUBLIC "-//W3C//DTD SVG 1.1//EN" "http://www.w3.org/Graphics/SVG/1.1/DTD/svg11.dtd">
<svg version="1.1" id="Capa_1" xmlns="http://www.w3.org/2000/svg" xmlns:xlink="http://www.w3.org/1999/xlink" x="0px" y="0px"
	 width="485.211px" height="485.21px" viewBox="0 0 485.211 485.21" style="enable-background:new 0 0 485.211 485.21;"
	 xml:space="preserve">
<g>
	<path d="M225.135,394.236H0V30.326h181.955l60.651,60.651h242.604v152.579c-27.657-37.169-71.519-61.601-121.303-61.601
		c-83.602,0-151.626,68.023-151.626,151.629C212.282,355.173,216.961,375.638,225.135,394.236z M485.211,333.583
		c0,66.963-54.283,121.302-121.303,121.302c-66.986,0-121.302-54.339-121.302-121.302c0-66.959,54.315-121.303,121.302-121.303
		C430.928,212.281,485.211,266.625,485.211,333.583z M454.889,363.905v-60.648h-60.653v-60.651h-60.649v60.651h-60.653v60.648
		h60.653v60.653h60.649v-60.653H454.889z"/>
</g>
<g>
</g>
<g>
</g>
<g>
</g>
<g>
</g>
<g>
</g>
<g>
</g>
<g>
</g>
<g>
</g>
<g>
</g>
<g>
</g>
<g>
</g>
<g>
</g>
<g>
</g>
<g>
</g>
<g>
</g>
</svg>
