<?xml version="1.0" encoding="iso-8859-1"?>
<!-- Generator: Adobe Illustrator 18.0.0, SVG Export Plug-In . SVG Version: 6.00 Build 0)  -->
<!DOCTYPE svg PUBLIC "-//W3C//DTD SVG 1.1//EN" "http://www.w3.org/Graphics/SVG/1.1/DTD/svg11.dtd">
<svg version="1.1" id="Capa_1" xmlns="http://www.w3.org/2000/svg" xmlns:xlink="http://www.w3.org/1999/xlink" x="0px" y="0px"
	 viewBox="0 0 374.117 374.117" style="enable-background:new 0 0 374.117 374.117;" xml:space="preserve">
<g>
	<path d="M344.059,207.508c-16.568,0-30,13.432-30,30v76.609h-254v-76.609c0-16.568-13.432-30-30-30s-30,13.432-30,30v106.609
		c0,16.568,13.432,30,30,30h314c16.568,0,30-13.432,30-30V237.508C374.059,220.939,360.627,207.508,344.059,207.508z"/>
	<path d="M250.547,108.287l-33.488,33.488V30c0-16.568-13.432-30-30-30s-30,13.432-30,30v111.775l-33.488-33.488
		c-5.857-5.857-13.535-8.787-21.213-8.787c-7.678,0-15.355,2.93-21.213,8.787c-11.715,11.717-11.715,30.711,0,42.426l84.701,84.701
		c11.715,11.717,30.711,11.717,42.426,0l84.701-84.701c11.717-11.715,11.717-30.709,0-42.426
		C281.258,96.57,262.262,96.57,250.547,108.287z"/>
</g>
<g>
</g>
<g>
</g>
<g>
</g>
<g>
</g>
<g>
</g>
<g>
</g>
<g>
</g>
<g>
</g>
<g>
</g>
<g>
</g>
<g>
</g>
<g>
</g>
<g>
</g>
<g>
</g>
<g>
</g>
</svg>
