<?xml version="1.0" encoding="utf-8"?>
<!-- Generator: Adobe Illustrator 20.1.0, SVG Export Plug-In . SVG Version: 6.00 Build 0)  -->
<svg version="1.1" id="Слой_1" xmlns="http://www.w3.org/2000/svg" xmlns:xlink="http://www.w3.org/1999/xlink" x="0px" y="0px"
	 viewBox="0 0 500 500" style="enable-background:new 0 0 500 500;" xml:space="preserve">
<style type="text/css">
	.st0{fill:#FFFFFF;stroke:#000000;stroke-width:6;stroke-miterlimit:10;}
	.st1{fill:#FFFFFF;}
</style>
<polygon class="st0" points="438.3,371.5 42.9,371.5 42.9,149.5 209.8,149.5 438.3,149.5 "/>
<polyline class="st0" points="42.9,149.5 75.6,114.6 205.2,114.6 234.8,149.5 "/>
<path class="st0" d="M324,286.5"/>
<g>
	<g>
		<path d="M297.2,272.1v43.1c0,0.8,0.7,1.4,1.6,1.4h110.6c0.9,0,1.6-0.6,1.6-1.4v-43.1c0-0.8-0.7-1.4-1.6-1.4H298.8
			C297.9,270.6,297.2,271.3,297.2,272.1z M403,310.3h-49.7c0,0-0.1,0-0.1,0c-6.6,0.5-13.9,1.1-20.4,0.3c-0.3,0-0.5-0.1-0.8-0.2
			c-0.2-0.1-0.3-0.1-0.5-0.1h-26.3c-0.9,0-1.6-0.6-1.6-1.4v-30.6c0-0.8,0.7-1.4,1.6-1.4l28.4,0l1.6-0.1c0.5-0.1,1,0,1.4,0.1h0.1
			c0.7-0.5,1.6-0.7,2.6-0.6c2.2,0.3,4.4,0.5,6.5,0.6c0,0,0.1,0,0.1,0h28.3c0,0,28.8,0,28.8,0c0.9,0,1.6,0.6,1.6,1.4v30.6
			C404.6,309.7,403.9,310.3,403,310.3z"/>
	</g>
	<g>
		<path class="st1" d="M334.1,240.2h38.6c0.9,0,1.6,0.6,1.6,1.4v103.2c0,0.8-0.7,1.4-1.6,1.4h-38.6"/>
		<path d="M377.5,276.9v-38.4c0-0.8-0.7-1.4-1.6-1.4h-43.3c-0.9,0-1.6,0.6-1.6,1.4v38c0.3-0.1,5.6,0.1,5.8,0l0.5-31.8
			c0-0.8,0.7-1.4,1.6-1.4h30.6c0.9,0,1.6,0.6,1.6,1.4v32.1"/>
		<path d="M371.2,276.9c1.7-0.2,3.4-0.4,5.1-0.4"/>
		<path d="M371.3,341.9c0,0.8-0.7,1.5-1.6,1.5h-30.6c-0.9,0-1.6-0.7-1.6-1.5v-31.6l-6.4,0v37.8c0,0.8,0.7,1.4,1.6,1.4H376
			c0.9,0,1.6-0.6,1.6-1.5l0-37.8c0,0-6.4,0-6.3,0C371.3,310.3,371.3,341.9,371.3,341.9z"/>
	</g>
</g>
</svg>
