<?xml version="1.0" encoding="utf-8"?>
<!-- Generator: Adobe Illustrator 20.1.0, SVG Export Plug-In . SVG Version: 6.00 Build 0)  -->
<svg version="1.1" id="Слой_1" xmlns="http://www.w3.org/2000/svg" xmlns:xlink="http://www.w3.org/1999/xlink" x="0px" y="0px"
	 viewBox="0 0 500 500" style="enable-background:new 0 0 500 500;" xml:space="preserve">
<style type="text/css">
	.st0{fill:#FFFFFF;stroke:#000000;stroke-width:6;stroke-miterlimit:10;}
	.st1{fill:none;stroke:#000000;stroke-miterlimit:10;}
	.st2{stroke:#000000;stroke-miterlimit:10;}
</style>
<g>
	<polygon class="st0" points="381.6,456.5 93.5,456.5 93.5,39 287.5,39 381.9,138.3 	"/>
	<path class="st1" d="M381.9,191.8"/>
	<path class="st1" d="M225.8,39"/>
	<path class="st2" d="M348.8,210.3H122.4c-2.6,0-4.8-2.1-4.8-4.8l0,0c0-2.6,2.1-4.8,4.8-4.8h226.3c2.6,0,4.8,2.1,4.8,4.8l0,0
		C353.5,208.1,351.4,210.3,348.8,210.3z"/>
	<path class="st2" d="M348.8,243.6H122.4c-2.6,0-4.8-2.1-4.8-4.7v0c0-2.6,2.1-4.8,4.8-4.8h226.3c2.6,0,4.8,2.1,4.8,4.8v0
		C353.5,241.4,351.4,243.6,348.8,243.6z"/>
	<path class="st2" d="M348.8,276.9H122.4c-2.6,0-4.8-2.1-4.8-4.8l0,0c0-2.6,2.1-4.8,4.8-4.8h226.3c2.6,0,4.8,2.1,4.8,4.8l0,0
		C353.5,274.8,351.4,276.9,348.8,276.9z"/>
	<polyline class="st2" points="284.5,39 314.4,132.5 381.9,138.3 	"/>
</g>
</svg>
