<?xml version="1.0" encoding="utf-8"?>
<!-- Generator: Adobe Illustrator 20.1.0, SVG Export Plug-In . SVG Version: 6.00 Build 0)  -->
<svg version="1.1" id="Слой_1" xmlns="http://www.w3.org/2000/svg" xmlns:xlink="http://www.w3.org/1999/xlink" x="0px" y="0px"
	 viewBox="0 0 499.9 499.9" style="enable-background:new 0 0 499.9 499.9;" xml:space="preserve">
<style type="text/css">
	.st0{fill:#FFFFFF;stroke:#3F7CAC;stroke-miterlimit:10;}
	.st1{fill:none;stroke:#000000;}
</style>
<path id="inonecloud" class="st0" d="M113.5,383.3l203.9-0.2c-55-60.6-25.4-175.3,83.3-173c8.8-68.1-84.7-118.3-135.3-52.9
	c-58.4-62.3-149.4-17.6-135,62.1C28.1,204.3-6.7,365.6,113.5,383.3z M456.1,273c-0.1-1-0.1-2-0.1-3c0-1.3,0-2.5,0.1-3.6
	c-0.4-0.3-1-0.7-1.8-1.2c0,0-5.7-3.6-12.1-6c-10-3.7-24.9-3.7-27.3-3.7c-11.7,0-22.1,0.2-33.3,6.1c-3.3,1.7-5.8,3.5-7.4,4.8
	c0,2.2,0,4.4,0,6.6c2.7,1.9,6.7,4.5,12,6.6c9.8,3.8,18,3.6,28.6,3.3c6.2-0.2,15.1-0.5,26.3-3.9C447.4,277.1,452.4,274.9,456.1,273z
	 M374.2,282.5c0,8.5,0,17,0,25.5c8.4,3.2,22.5,7.4,40.3,7.2c18.7-0.2,33.2-5.2,41.6-8.8c0-8,0.1-16,0.1-24c-8.5,3.4-22.9,8-41.4,8
	c-6.7,0-20.7-0.7-36.8-6.5C376.5,283.4,375.1,282.9,374.2,282.5z M374.2,314c8.4,3.4,22.8,8.1,41.1,8.2c18,0.1,32.2-4.3,40.6-7.6
	c0.1,9,0.1,18,0.2,27c-8.3,3.5-22.7,8.3-41.1,8.4c-18.2,0.1-32.5-4.5-40.8-7.9C374.2,332.8,374.2,323.4,374.2,314z M374.2,350
	c0,8.2,0,16.3,0,24.5c7.9,3.5,22.4,8.8,41.3,8.7c18.5-0.1,32.7-5.3,40.6-8.8c0-8.1,0-16.3,0-24.4c-10.1,2.8-24.1,5.5-40.8,5.5
	C398.4,355.5,384.3,352.8,374.2,350z"/>
<path class="st1" d="M416.8,318.1"/>
</svg>
