<?xml version="1.0" encoding="UTF-8" standalone="no"?>
<!-- Created with Inkscape (http://www.inkscape.org/) -->

<svg
   xmlns:dc="http://purl.org/dc/elements/1.1/"
   xmlns:cc="http://creativecommons.org/ns#"
   xmlns:rdf="http://www.w3.org/1999/02/22-rdf-syntax-ns#"
   xmlns:svg="http://www.w3.org/2000/svg"
   xmlns="http://www.w3.org/2000/svg"
   xmlns:sodipodi="http://sodipodi.sourceforge.net/DTD/sodipodi-0.dtd"
   xmlns:inkscape="http://www.inkscape.org/namespaces/inkscape"
   width="210mm"
   height="297mm"
   viewBox="0 0 744.09448819 1052.3622047"
   id="svg3383"
   version="1.1"
   inkscape:version="0.91 r13725"
   sodipodi:docname="tu_ilmenau.svg">
  <defs
     id="defs3385" />
  <sodipodi:namedview
     id="base"
     pagecolor="#ffffff"
     bordercolor="#666666"
     borderopacity="1.0"
     inkscape:pageopacity="0.0"
     inkscape:pageshadow="2"
     inkscape:zoom="0.49497475"
     inkscape:cx="130.26142"
     inkscape:cy="587.28794"
     inkscape:document-units="px"
     inkscape:current-layer="layer1"
     showgrid="false"
     inkscape:window-width="1536"
     inkscape:window-height="801"
     inkscape:window-x="-8"
     inkscape:window-y="-8"
     inkscape:window-maximized="1" />
  <metadata
     id="metadata3388">
    <rdf:RDF>
      <cc:Work
         rdf:about="">
        <dc:format>image/svg+xml</dc:format>
        <dc:type
           rdf:resource="http://purl.org/dc/dcmitype/StillImage" />
        <dc:title />
      </cc:Work>
    </rdf:RDF>
  </metadata>
  <g
     inkscape:label="Layer 1"
     inkscape:groupmode="layer"
     id="layer1">
    <path
       id="path3370-4"
       style="fill:#ffffff"
       d="m 660.87468,314.19964 c -5.88334,-2.52254 -8.76699,-7.08642 -8.72858,-13.81448 0.0448,-7.84773 4.98933,-15.75095 11.45196,-18.30453 3.36936,-1.33135 10.03182,-1.31288 13.54157,0.0375 6.08307,2.34054 13.34908,11.17844 13.31273,16.19275 -0.0373,5.15303 -4.88177,11.87723 -11.22624,15.58235 -4.84172,2.82754 -12.1854,2.95014 -18.35144,0.30639 z M 64.746723,502.8633 c -12.565089,-6.04464 -19.9293,-12.26076 -27.013056,-22.80188 -8.888363,-13.22644 -9.83434,-17.15868 -10.834228,-45.0355 -1.348416,-37.5937 2.814295,-52.15284 28.520989,-99.75223 20.389165,-37.75333 35.284975,-59.28255 67.186752,-97.1065 11.44655,-13.57148 20.06223,-25.36578 19.14591,-26.20957 -0.91629,-0.84378 -10.68774,-0.0276 -21.71431,1.81359 -36.644467,6.11905 -26.576557,-2.06991 12.5047,-10.17099 l 23.80831,-4.93517 48.32578,-45.91214 c 55.01909,-52.27115 74.51422,-66.744256 92.97519,-69.024436 12.80569,-1.58167 29.08085,4.64209 29.08085,11.12077 0,1.58168 -15.30294,20.287156 -34.00651,41.567746 -38.89711,44.25635 -39.97436,41.78317 14.89408,34.19424 31.06663,-4.29687 45.04324,-3.57688 34.63979,1.78444 -2.57386,1.32642 -25.65034,5.85236 -51.28104,10.05763 -53.43977,8.76797 -49.08916,6.02975 -85.19925,53.62308 -30.17306,39.76827 -62.51152,90.79237 -76.55671,120.79232 -21.78721,46.53657 -31.576667,89.83065 -21.14555,93.5167 8.85493,3.12902 97.88204,-46.32273 180.9472,-100.51052 l 31.72856,-20.69821 16.57972,-33.16704 c 25.22348,-50.45852 71.735,-135.5234 82.77347,-151.38441 5.40726,-7.76963 11.32281,-14.1266 13.1456,-14.1266 1.82282,0 -13.1518,30.44654 -33.27693,67.65898 -40.51911,74.92196 -59.12367,112.87897 -56.50805,115.2876 0.94924,0.87415 18.28223,-7.90428 38.51768,-19.50758 49.68641,-28.49094 104.41507,-53.10573 123.01615,-55.32783 13.8658,-1.65642 16.02224,-1.03061 25.02945,7.2638 17.74508,16.34076 16.27661,21.79469 -32.19515,119.57273 -19.64556,39.62932 -33.83126,72.24555 -34.78844,79.98682 l -1.61629,13.07127 9.29614,-2.14853 c 10.53762,-2.43548 52.71406,-27.70769 109.04751,-65.34147 33.53359,-22.40222 39.94288,-25.56809 51.76249,-25.56809 14.73023,0 27.84561,6.5633 27.84561,13.93469 0,6.88184 -51.57272,54.42956 -89.50746,82.5219 -76.30583,56.50768 -134.99157,64.63071 -165.92273,22.96631 -6.69308,-9.01568 -7.75691,-13.84185 -7.59812,-34.46947 0.21058,-27.3424 3.96164,-39.41133 29.49995,-94.91284 9.67067,-21.01694 16.96648,-38.78038 16.21292,-39.4743 -1.45358,-1.33857 -61.56704,36.85219 -111.14712,70.61302 l -29.72392,20.24008 -16.67527,47.5995 c -17.86184,50.98661 -22.78771,60.35968 -28.83781,54.87346 -2.72503,-2.47102 0.0505,-13.7642 10.83796,-44.0973 9.17106,-25.78803 12.95637,-40.22975 10.29848,-39.29049 -2.31143,0.81681 -23.45971,14.31433 -46.9962,29.99462 -23.53649,15.68029 -55.83443,34.52116 -71.77321,41.86875 -26.38799,12.16442 -31.0834,13.35913 -52.50456,13.35913 -19.479337,0 -26.495667,-1.42912 -40.799327,-8.31008 z"
       inkscape:connector-curvature="0" />
  </g>
</svg>
